# xmcd CD database file
#
# Track frame offsets:
#	150
#	18065
#	36617
#	55715
#	75313
#	93055
#	123744
#	148239
#	166645
#	189524
#	210664
#
# Disc length: 3154 seconds
#
# Revision: 0
# Processed by: cddbd v1.5.2PL0 Copyright (c) Steve Scherf et al.
# Submitted via: CDex 1.51
#
DISCID=880c500b
DTITLE=J. Thompson - Inside World
DYEAR=2006
DGENRE=Jazz
TTITLE0=Marché Marché
TTITLE1=Tale Of Tiernan
TTITLE2=Smile For Me
TTITLE3=Dreamer
TTITLE4=Cincy In The City
TTITLE5=Inside World
TTITLE6=So Sexy
TTITLE7=Gimmie Sum
TTITLE8=The Shake
TTITLE9=Everything To Me
TTITLE10=One Day
EXTD=YEAR: 2006
EXTT0=
EXTT1=
EXTT2=
EXTT3=
EXTT4=
EXTT5=
EXTT6=
EXTT7=
EXTT8=
EXTT9=
EXTT10=
PLAYORDER=
